<mxfile host="65bd71144e">
    <diagram id="fPVr-ZNGr0R0h2Oq76oC" name="PÃ¡gina-1">
        <mxGraphModel dx="650" dy="472" grid="1" gridSize="10" guides="1" tooltips="1" connect="1" arrows="1" fold="1" page="1" pageScale="1" pageWidth="827" pageHeight="1169" math="0" shadow="0">
            <root>
                <mxCell id="0"/>
                <mxCell id="1" parent="0"/>
                <mxCell id="6" value="" style="edgeStyle=none;html=1;" edge="1" parent="1" source="2" target="4">
                    <mxGeometry relative="1" as="geometry"/>
                </mxCell>
                <mxCell id="2" value="Inicio" style="ellipse;whiteSpace=wrap;html=1;fillColor=#008a00;fontColor=#ffffff;strokeColor=#005700;" vertex="1" parent="1">
                    <mxGeometry x="190" y="50" width="120" height="80" as="geometry"/>
                </mxCell>
                <mxCell id="26" style="edgeStyle=none;html=1;entryX=0.558;entryY=-0.029;entryDx=0;entryDy=0;entryPerimeter=0;" edge="1" parent="1" source="3" target="10">
                    <mxGeometry relative="1" as="geometry">
                        <mxPoint x="360" y="390" as="targetPoint"/>
                        <Array as="points">
                            <mxPoint x="421" y="325"/>
                        </Array>
                    </mxGeometry>
                </mxCell>
                <mxCell id="3" value="edad&amp;gt;=18" style="rhombus;whiteSpace=wrap;html=1;fillColor=#e3c800;fontColor=#000000;strokeColor=#B09500;" vertex="1" parent="1">
                    <mxGeometry x="190" y="270" width="120" height="110" as="geometry"/>
                </mxCell>
                <mxCell id="7" value="" style="edgeStyle=none;html=1;" edge="1" parent="1" source="4" target="3">
                    <mxGeometry relative="1" as="geometry"/>
                </mxCell>
                <mxCell id="4" value="edad" style="shape=parallelogram;perimeter=parallelogramPerimeter;whiteSpace=wrap;html=1;fixedSize=1;fillColor=#e51400;fontColor=#ffffff;strokeColor=#B20000;" vertex="1" parent="1">
                    <mxGeometry x="190" y="160" width="120" height="60" as="geometry"/>
                </mxCell>
                <mxCell id="10" value="Mayor de edad" style="shape=document;whiteSpace=wrap;html=1;boundedLbl=1;fillColor=#1ba1e2;fontColor=#ffffff;strokeColor=#006EAF;" vertex="1" parent="1">
                    <mxGeometry x="354" y="410" width="120" height="70" as="geometry"/>
                </mxCell>
                <mxCell id="11" value="Menor de edad" style="shape=document;whiteSpace=wrap;html=1;boundedLbl=1;fillColor=#1ba1e2;fontColor=#ffffff;strokeColor=#006EAF;" vertex="1" parent="1">
                    <mxGeometry x="20" y="400" width="120" height="80" as="geometry"/>
                </mxCell>
                <mxCell id="15" value="" style="endArrow=classic;html=1;exitX=0;exitY=0.5;exitDx=0;exitDy=0;entryX=0.5;entryY=0;entryDx=0;entryDy=0;" edge="1" parent="1" source="3" target="11">
                    <mxGeometry width="50" height="50" relative="1" as="geometry">
                        <mxPoint x="109.5" y="330" as="sourcePoint"/>
                        <mxPoint x="109.5" y="400" as="targetPoint"/>
                        <Array as="points">
                            <mxPoint x="80" y="325"/>
                            <mxPoint x="80" y="370"/>
                        </Array>
                    </mxGeometry>
                </mxCell>
                <mxCell id="19" value="" style="endArrow=none;html=1;endFill=0;" edge="1" parent="1">
                    <mxGeometry width="50" height="50" relative="1" as="geometry">
                        <mxPoint x="90" y="490" as="sourcePoint"/>
                        <mxPoint x="240" y="540" as="targetPoint"/>
                        <Array as="points">
                            <mxPoint x="90" y="540"/>
                        </Array>
                    </mxGeometry>
                </mxCell>
                <mxCell id="20" value="" style="endArrow=none;html=1;strokeColor=default;rounded=1;sketch=0;startArrow=none;startFill=0;endFill=0;" edge="1" parent="1">
                    <mxGeometry width="50" height="50" relative="1" as="geometry">
                        <mxPoint x="420" y="480" as="sourcePoint"/>
                        <mxPoint x="240" y="540" as="targetPoint"/>
                        <Array as="points">
                            <mxPoint x="420" y="540"/>
                        </Array>
                    </mxGeometry>
                </mxCell>
                <mxCell id="23" value="Fin" style="ellipse;whiteSpace=wrap;html=1;fillColor=#008a00;fontColor=#ffffff;strokeColor=#005700;" vertex="1" parent="1">
                    <mxGeometry x="190" y="610" width="120" height="80" as="geometry"/>
                </mxCell>
                <mxCell id="24" value="False" style="text;html=1;strokeColor=#3A5431;fillColor=#6d8764;align=center;verticalAlign=middle;whiteSpace=wrap;rounded=0;fontColor=#ffffff;" vertex="1" parent="1">
                    <mxGeometry x="110" y="290" width="70" height="30" as="geometry"/>
                </mxCell>
                <mxCell id="25" value="True" style="text;html=1;strokeColor=#3A5431;fillColor=#6d8764;align=center;verticalAlign=middle;whiteSpace=wrap;rounded=0;fontColor=#ffffff;" vertex="1" parent="1">
                    <mxGeometry x="330" y="290" width="60" height="30" as="geometry"/>
                </mxCell>
                <mxCell id="27" value="" style="endArrow=classic;html=1;rounded=1;sketch=0;strokeColor=default;entryX=0.5;entryY=0;entryDx=0;entryDy=0;" edge="1" parent="1" target="23">
                    <mxGeometry width="50" height="50" relative="1" as="geometry">
                        <mxPoint x="250" y="540" as="sourcePoint"/>
                        <mxPoint x="280" y="550" as="targetPoint"/>
                    </mxGeometry>
                </mxCell>
            </root>
        </mxGraphModel>
    </diagram>
</mxfile>